<?xml version="1.0" standalone="no"?><!DOCTYPE svg PUBLIC "-//W3C//DTD SVG 1.1//EN" "http://www.w3.org/Graphics/SVG/1.1/DTD/svg11.dtd"><svg class="icon" width="16" height="16" viewBox="0 0 1024 1024" version="1.1" xmlns="http://www.w3.org/2000/svg"><path fill="white" d="M792.34206 489.626827c-1.772634-1.721987-3.798501-3.292035-6.026956-4.608848l-2.203131-1.671341-504.820832-473.597151c-6.508099-6.356159-14.940772-9.749487-23.905235-9.749487s-17.397136 3.393328-23.727972 9.572223c-6.254866 6.077602-9.673517 14.155748-9.673517 22.715038 0 8.55929 3.418651 16.612113 9.673517 22.715038l488.234043 458.023295-487.702253 456.453248c-6.026956 5.875015-9.47093 13.953162-9.47093 22.512451s3.443975 16.637436 9.673517 22.740362c12.611025 12.332468 34.794273 12.357791 47.43062 0.025323l510.974405-478.205999c7.774266-7.546356 11.218241-15.624502 11.218241-24.183792C802.015576 503.782575 798.571602 495.704429 792.34206 489.626827zM800.242942 545.692707 800.242942 545.692707 800.242942 545.692707z" /></svg>