<?xml version="1.0" encoding="utf-8"?>
<!-- Generator: Adobe Illustrator 22.1.0, SVG Export Plug-In . SVG Version: 6.00 Build 0)  -->
<svg version="1.1" id="Camada_1" xmlns="http://www.w3.org/2000/svg" xmlns:xlink="http://www.w3.org/1999/xlink" x="0px" y="0px"
	 viewBox="0 0 16 16" style="enable-background:new 0 0 16 16;" xml:space="preserve">
<style type="text/css">
	.st0{fill:none;stroke:#000000;stroke-miterlimit:10;}
</style>
<path class="st0" d="M14,7.1c-3.5-3.2-8.6-3.2-12.1,0L1,8l0.9,0.9c3.5,3.2,8.6,3.2,12.1,0L15,8L14,7.1z"/>
<path d="M8.5,6.5c0-0.1,0-0.3,0.1-0.4C8.4,6,8.2,6,8,6C6.9,6,6,6.9,6,8c0,1.1,0.9,2,2,2s2-0.9,2-2c0-0.2,0-0.4-0.1-0.6
	C9.8,7.5,9.6,7.5,9.5,7.5C8.9,7.5,8.5,7.1,8.5,6.5z"/>
</svg>
