<?xml version="1.0" encoding="utf-8"?>
<svg version="1.1" xmlns="http://www.w3.org/2000/svg" xmlns:xlink="http://www.w3.org/1999/xlink" x="0px" y="0px"
	 viewBox="0 0 256 256" style="enable-background:new 0 0 256 256;" xml:space="preserve">
<style type="text/css">
	.st0{fill:#B71C1C;}
</style>
<g>
	<path class="st0" d="M128,0C57.3,0,0,57.3,0,128s57.3,128,128,128s128-57.3,128-128S198.7,0,128,0z M205.9,185.6
		c5.5,5.5,5.5,14.3,0,19.8c-2.7,2.7-6.3,4.1-9.9,4.1s-7.2-1.4-9.9-4.1l-57.9-57.9l-57.9,57.9c-2.7,2.7-6.3,4.1-9.9,4.1
		s-7.2-1.4-9.9-4.1c-5.5-5.5-5.5-14.3,0-19.8l57.9-57.9L50.6,69.9c-5.5-5.5-5.5-14.3,0-19.8c5.5-5.5,14.3-5.5,19.8,0l57.9,57.9
		l57.9-57.9c5.5-5.5,14.3-5.5,19.8,0c5.5,5.5,5.5,14.3,0,19.8L148,127.8L205.9,185.6z"/>
</g>
</svg>
