<?xml version="1.0" encoding="utf-8"?>
<svg version="1.1" xmlns="http://www.w3.org/2000/svg" xmlns:xlink="http://www.w3.org/1999/xlink" x="0px" y="0px"
	 viewBox="0 0 256 256" style="enable-background:new 0 0 256 256;" xml:space="preserve">
<style type="text/css">
	.st0{fill:none;stroke:#FF0000;stroke-width:21;stroke-miterlimit:10;}
	.st1{fill:#FAFAFA;}
</style>
<g>
	<path class="st0" d="M41.3,222.7"/>
	<path class="st0" d="M213.9,222.7"/>
	<path class="st1" d="M222.2,58.4c-4.6,4.6-12,4.6-16.5,0c-1.7-1.7-3.5-3.4-5.3-5C158.6,16.8,96,17,54.5,53.8
		c-1.7,1.5-3.3,3-4.9,4.6c-4.6,4.6-12,4.6-16.5,0s-4.6-12,0-16.5c1.9-1.9,3.9-3.8,5.9-5.6C89.2-8.3,165.2-8.5,215.7,35.8
		c2.2,1.9,4.4,4,6.4,6C226.8,46.4,226.8,53.8,222.2,58.4z"/>
</g>
</svg>
