<?xml version="1.0" encoding="utf-8"?>
<svg version="1.1" xmlns="http://www.w3.org/2000/svg" xmlns:xlink="http://www.w3.org/1999/xlink" x="0px" y="0px"
	 viewBox="0 0 256 256" style="enable-background:new 0 0 256 256;" xml:space="preserve">
<style type="text/css">
	.st0{fill:#2E7D32;}
</style>
<g>
	<path class="st0" d="M128,0C57.3,0,0,57.3,0,128s57.3,128,128,128s128-57.3,128-128S198.7,0,128,0z M214.3,85.3l-100.1,99.9
		c-2.8,2.8-6.5,4.2-10.2,4.2c-3.4,0-6.9-1.2-9.6-3.7l-53-47c-6-5.3-6.5-14.5-1.2-20.5c5.3-6,14.5-6.5,20.5-1.2l42.8,38l90.4-90.3
		c5.7-5.7,14.8-5.7,20.5,0S220,79.7,214.3,85.3z"/>
</g>
</svg>
